<svg height="1024" node-id="1" sillyvg="true" template-height="1024" template-width="1024" version="1.1" viewBox="0 0 1024 1024" width="1024" xmlns="http://www.w3.org/2000/svg" xmlns:xlink="http://www.w3.org/1999/xlink"><defs node-id="48"></defs><path d="M 0.00 0.00 L 1024.00 0.00 L 1024.00 1024.00 L 0.00 1024.00 Z" fill="#ffffff" fill-rule="nonzero" node-id="50" stroke="none" target-height="1024" target-width="1024" target-x="0" target-y="0"/><path d="M 341.30 480.00 L 421.50 480.00 L 421.60 505.00 L 340.70 505.00 L 341.30 480.00 Z" fill="#ffe69c" fill-rule="nonzero" node-id="52" stroke="none" target-height="25" target-width="80.899994" target-x="340.7" target-y="480"/><path d="M 603.30 480.00 L 746.10 480.00 L 748.30 480.20 L 750.40 480.90 L 752.40 481.90 L 754.20 483.40 L 756.80 487.00 L 757.60 489.10 L 758.00 491.30 L 757.50 495.80 L 756.70 497.90 L 755.50 499.70 L 752.30 502.70 L 748.20 504.50 L 746.10 504.90 L 603.30 505.10 L 603.30 480.00 Z" fill="#ffe69c" fill-rule="nonzero" node-id="54" stroke="none" target-height="25.100006" target-width="154.70001" target-x="603.3" target-y="480"/><path d="M 481.60 87.40 L 484.40 83.70 L 487.40 80.60 L 490.90 78.00 L 494.80 75.80 L 498.80 74.20 L 503.00 72.90 L 507.40 72.20 L 511.70 72.00 L 516.20 72.30 L 520.50 73.00 L 524.70 74.30 L 528.70 76.00 L 532.50 78.20 L 535.90 81.00 L 539.00 84.30 L 541.60 87.50 L 543.60 91.00 L 545.20 94.70 L 546.30 98.50 L 546.90 102.40 L 547.10 106.40 L 546.90 110.40 L 546.20 114.40 L 545.20 118.30 L 543.70 122.00 L 541.80 125.60 L 539.60 128.90 L 537.00 131.90 L 534.00 134.70 L 530.70 137.00 L 585.90 136.90 L 589.90 137.50 L 593.80 138.60 L 597.50 140.20 L 601.80 143.30 L 605.40 147.60 L 606.70 150.00 L 607.70 152.60 L 608.50 156.70 L 608.80 160.90 L 608.90 185.00 L 608.60 190.30 L 608.00 195.40 L 606.70 200.50 L 624.40 206.20 L 633.10 209.60 L 649.90 217.50 L 666.10 226.60 L 673.90 231.70 L 682.60 237.80 L 690.80 244.50 L 698.70 251.50 L 706.20 258.90 L 713.40 266.80 L 720.10 275.00 L 726.30 283.50 L 732.00 292.50 L 737.00 301.10 L 741.40 310.00 L 745.30 319.20 L 748.60 328.60 L 751.50 338.10 L 753.70 347.80 L 755.50 357.60 L 756.70 367.50 L 757.40 377.50 L 757.70 391.10 L 757.60 445.50 L 758.10 460.80 L 758.60 462.30 L 759.50 463.60 L 761.20 465.30 L 765.50 468.20 L 770.40 472.20 L 772.90 475.10 L 774.90 478.40 L 776.40 481.90 L 777.40 485.50 L 777.90 489.30 L 778.00 493.20 L 777.60 497.00 L 776.70 500.80 L 775.40 504.40 L 773.60 507.80 L 771.30 510.90 L 769.30 513.00 L 762.70 518.40 L 758.60 522.40 L 757.90 526.60 L 757.60 530.90 L 757.70 584.50 L 757.20 596.70 L 756.50 604.70 L 755.40 612.80 L 753.90 620.70 L 751.20 631.00 L 748.00 641.10 L 744.20 650.90 L 739.70 660.50 L 734.80 669.90 L 729.30 679.00 L 723.40 687.70 L 717.00 696.10 L 710.10 704.20 L 702.90 711.90 L 695.20 719.20 L 687.20 726.10 L 679.20 732.40 L 670.90 738.20 L 662.30 743.70 L 653.50 748.70 L 644.40 753.30 L 635.20 757.50 L 625.80 761.40 L 606.60 768.00 L 607.80 772.80 L 608.50 777.60 L 608.80 782.50 L 608.50 808.20 L 607.90 811.80 L 606.40 816.30 L 603.60 820.80 L 599.60 824.60 L 594.80 827.30 L 592.20 828.30 L 586.80 829.40 L 520.50 829.50 L 520.50 864.60 L 526.10 866.10 L 531.50 868.10 L 535.00 869.80 L 541.40 874.00 L 546.90 879.30 L 551.60 885.90 L 553.60 889.70 L 555.10 893.60 L 556.30 897.70 L 557.00 901.90 L 557.30 906.10 L 557.30 910.40 L 556.80 914.60 L 556.00 918.70 L 554.70 922.80 L 553.00 926.60 L 550.90 930.40 L 548.00 934.60 L 544.70 938.40 L 541.00 941.80 L 536.80 944.80 L 532.50 947.30 L 527.80 949.30 L 522.90 950.80 L 518.00 951.70 L 512.90 952.00 L 508.30 951.90 L 503.70 951.30 L 499.30 950.20 L 495.00 948.60 L 490.90 946.70 L 486.90 944.30 L 483.30 941.50 L 479.90 938.50 L 476.80 935.10 L 474.10 931.40 L 471.80 927.40 L 470.00 923.20 L 468.40 918.30 L 467.50 913.30 L 467.10 908.10 L 467.40 903.00 L 468.10 897.90 L 469.40 892.90 L 471.50 888.20 L 474.00 883.90 L 477.10 879.90 L 480.60 876.30 L 484.40 873.10 L 488.60 870.30 L 493.10 868.00 L 497.80 866.20 L 502.80 864.90 L 502.90 829.50 L 439.00 829.50 L 433.10 828.50 L 430.30 827.50 L 425.10 824.70 L 420.80 820.70 L 417.80 815.80 L 416.20 810.90 L 415.70 807.00 L 415.60 781.20 L 416.40 773.60 L 418.20 767.80 L 408.10 764.50 L 398.10 760.80 L 388.40 756.70 L 378.70 752.10 L 369.30 747.10 L 360.10 741.70 L 351.30 735.90 L 342.60 729.70 L 334.30 723.00 L 326.40 716.00 L 318.80 708.60 L 311.60 700.70 L 305.40 693.20 L 299.50 685.40 L 294.10 677.30 L 289.10 669.00 L 284.50 660.30 L 280.50 651.50 L 276.90 642.50 L 273.80 633.20 L 271.20 623.80 L 269.20 614.30 L 267.80 604.70 L 266.90 594.90 L 266.50 583.40 L 266.50 537.30 L 266.10 523.90 L 264.60 521.00 L 262.90 519.20 L 258.60 516.00 L 253.70 511.80 L 251.20 508.80 L 249.20 505.50 L 247.70 501.90 L 246.70 498.20 L 246.10 494.30 L 246.00 490.30 L 246.40 486.50 L 247.40 482.70 L 248.80 479.10 L 250.60 475.70 L 253.00 472.60 L 255.00 470.70 L 266.00 463.00 L 266.50 449.40 L 266.20 394.60 L 267.30 371.90 L 269.60 354.00 L 271.30 345.10 L 273.60 336.30 L 276.40 327.50 L 279.90 318.20 L 283.90 309.20 L 288.30 300.40 L 293.30 291.80 L 298.60 283.60 L 304.40 275.60 L 310.50 267.90 L 317.10 260.50 L 324.00 253.50 L 331.20 246.80 L 338.70 240.40 L 346.60 234.40 L 354.70 228.70 L 363.00 223.50 L 371.60 218.60 L 380.40 214.10 L 389.50 210.00 L 398.60 206.40 L 407.90 203.20 L 417.40 200.40 L 416.20 195.30 L 415.40 185.00 L 415.60 161.10 L 415.90 157.00 L 416.60 153.00 L 417.40 150.40 L 418.70 148.00 L 422.10 143.70 L 426.40 140.40 L 430.00 138.70 L 433.90 137.60 L 437.90 137.00 L 492.40 137.00 L 486.80 132.60 L 482.30 127.20 L 479.90 123.10 L 478.00 118.90 L 476.70 114.30 L 475.90 109.70 L 475.80 105.10 L 476.30 100.40 L 478.20 93.70 L 481.60 87.40 Z M 503.40 90.90 L 501.10 92.20 L 499.10 93.90 L 497.30 95.80 L 494.70 100.20 L 493.50 105.30 L 493.50 107.90 L 494.60 113.00 L 495.60 115.20 L 498.50 119.30 L 502.40 122.50 L 504.60 123.70 L 509.40 125.00 L 511.90 125.20 L 514.40 124.90 L 516.90 124.20 L 519.40 123.20 L 521.60 121.80 L 523.60 120.10 L 526.80 116.00 L 528.80 111.10 L 529.30 108.50 L 529.10 103.30 L 528.40 100.80 L 527.30 98.30 L 525.60 95.70 L 523.50 93.50 L 521.00 91.70 L 518.30 90.40 L 515.40 89.50 L 512.30 89.10 L 509.30 89.20 L 506.30 89.80 L 503.40 90.90 Z M 432.30 159.20 L 432.20 174.40 L 432.50 191.00 L 433.80 193.50 L 434.90 194.30 L 436.20 194.80 L 587.20 194.90 L 588.60 194.50 L 589.90 193.70 L 590.90 192.60 L 591.50 191.20 L 591.70 189.70 L 591.90 174.40 L 591.60 157.50 L 591.00 156.20 L 590.00 155.10 L 587.30 153.80 L 438.20 153.80 L 434.70 154.80 L 433.40 155.80 L 432.40 157.80 L 432.30 159.20 Z M 540.80 211.10 L 556.80 225.40 L 560.60 229.20 L 564.10 233.30 L 569.20 239.90 L 574.00 246.70 L 578.40 253.70 L 582.50 260.90 L 586.20 268.30 L 590.40 277.80 L 593.90 287.50 L 596.90 297.40 L 599.40 307.50 L 601.30 317.80 L 602.60 328.10 L 603.30 338.40 L 603.50 348.70 L 733.00 348.50 L 730.70 340.60 L 728.10 332.90 L 725.20 325.30 L 721.80 317.80 L 718.10 310.50 L 709.70 296.60 L 700.00 283.40 L 689.20 271.30 L 677.20 260.10 L 670.90 255.00 L 657.50 245.60 L 648.70 240.30 L 639.70 235.40 L 630.40 230.90 L 621.00 226.80 L 611.30 223.20 L 601.60 220.00 L 591.70 217.30 L 581.60 215.00 L 571.50 213.30 L 561.30 212.00 L 551.10 211.30 L 540.80 211.10 Z M 451.20 213.20 L 440.60 215.20 L 430.00 217.70 L 419.60 220.70 L 409.30 224.20 L 399.20 228.30 L 389.40 232.80 L 379.80 237.90 L 370.40 243.40 L 361.40 249.40 L 352.70 255.90 L 344.40 262.90 L 336.50 270.40 L 329.60 277.80 L 323.10 285.50 L 317.10 293.70 L 311.50 302.20 L 306.50 311.00 L 302.00 320.00 L 299.00 327.00 L 294.10 341.30 L 292.10 348.70 L 421.90 348.40 L 422.00 338.80 L 422.60 329.10 L 423.70 319.40 L 425.30 309.80 L 427.40 300.20 L 430.00 290.80 L 433.10 281.60 L 436.80 272.50 L 440.90 263.60 L 445.50 255.10 L 450.70 246.90 L 456.30 239.00 L 461.20 232.90 L 466.40 227.10 L 471.80 221.60 L 477.70 216.40 L 483.80 211.50 L 475.60 211.20 L 467.50 211.40 L 459.30 212.10 L 451.20 213.20 Z M 476.90 240.70 L 467.90 252.20 L 460.10 264.50 L 455.50 273.20 L 451.60 282.00 L 448.10 291.20 L 445.20 300.50 L 442.80 310.00 L 440.90 319.60 L 439.60 329.30 L 438.70 339.00 L 438.30 348.70 L 586.90 348.60 L 586.50 338.80 L 585.60 329.00 L 584.20 319.30 L 582.30 309.60 L 579.80 300.10 L 576.80 290.80 L 573.30 281.60 L 569.20 272.70 L 564.60 264.10 L 560.70 257.80 L 552.10 245.90 L 547.30 240.30 L 542.50 235.50 L 533.60 228.10 L 525.90 223.40 L 521.70 221.60 L 517.40 220.30 L 512.80 219.60 L 508.00 220.20 L 503.50 221.30 L 499.10 223.10 L 495.00 225.30 L 491.00 227.90 L 487.20 230.80 L 481.90 235.70 L 476.90 240.70 Z M 288.40 410.30 L 421.60 410.40 L 421.60 365.00 L 289.00 365.00 L 288.60 376.30 L 288.40 410.30 Z M 438.30 365.00 L 438.30 410.40 L 586.70 410.40 L 586.70 365.00 L 438.30 365.00 Z M 603.20 365.00 L 603.40 410.40 L 735.30 410.40 L 735.20 376.30 L 734.90 364.90 L 603.20 365.00 Z M 288.50 421.80 L 288.50 463.50 L 421.70 463.50 L 421.60 421.70 L 288.50 421.80 Z M 438.30 463.60 L 586.80 463.60 L 586.70 421.70 L 438.50 421.70 L 438.30 463.60 Z M 603.20 421.70 L 603.40 463.70 L 735.30 463.60 L 735.20 421.80 L 603.20 421.70 Z M 266.10 493.50 L 267.10 497.50 L 269.30 500.80 L 272.60 503.30 L 276.40 504.60 L 294.00 505.00 L 421.60 505.00 L 421.50 480.00 L 309.50 479.90 L 277.70 480.20 L 275.50 480.40 L 273.40 481.00 L 271.50 482.10 L 269.80 483.50 L 267.20 487.00 L 266.40 489.10 L 266.00 491.20 L 266.10 493.50 Z M 438.30 480.10 L 438.20 505.00 L 586.80 504.90 L 586.70 480.10 L 438.30 480.10 Z M 603.30 480.00 L 603.30 505.10 L 746.10 504.90 L 748.20 504.50 L 752.30 502.70 L 755.50 499.70 L 756.70 497.90 L 757.50 495.80 L 758.00 491.30 L 757.60 489.10 L 756.80 487.00 L 754.20 483.40 L 752.40 481.90 L 750.40 480.90 L 748.30 480.20 L 746.10 480.00 L 603.30 480.00 Z M 288.40 521.60 L 288.40 572.40 L 421.60 572.30 L 421.60 521.40 L 288.40 521.60 Z M 438.30 521.50 L 438.30 572.40 L 586.70 572.30 L 586.70 521.50 L 438.30 521.50 Z M 603.30 521.50 L 603.50 572.40 L 735.30 572.30 L 735.30 521.50 L 603.30 521.50 Z M 288.40 583.90 L 288.80 594.50 L 289.70 605.00 L 292.00 618.90 L 293.70 625.70 L 421.70 625.50 L 421.60 583.70 L 288.40 583.90 Z M 438.30 583.70 L 438.40 625.60 L 586.70 625.60 L 586.70 583.80 L 438.30 583.70 Z M 603.30 583.70 L 603.50 625.70 L 730.30 625.50 L 731.90 618.70 L 734.10 604.70 L 735.00 590.70 L 735.00 583.60 L 603.30 583.70 Z M 299.80 642.00 L 302.60 648.90 L 309.20 662.10 L 313.00 668.40 L 318.50 676.60 L 324.50 684.30 L 331.00 691.80 L 337.90 698.80 L 345.20 705.50 L 352.80 711.80 L 360.80 717.70 L 369.00 723.20 L 377.30 728.30 L 388.20 734.10 L 399.40 739.30 L 410.80 744.00 L 428.40 749.80 L 446.40 754.10 L 455.50 755.70 L 464.70 756.80 L 473.90 757.50 L 483.10 757.70 L 469.90 746.40 L 464.40 740.90 L 459.30 735.10 L 454.50 729.00 L 450.10 722.60 L 442.20 709.20 L 438.80 702.20 L 434.80 692.60 L 431.30 682.80 L 428.30 672.70 L 426.00 662.50 L 424.10 652.30 L 422.80 642.10 L 299.80 642.00 Z M 440.00 641.90 L 441.50 651.70 L 443.40 661.50 L 445.90 671.10 L 448.90 680.70 L 452.40 689.90 L 456.50 699.00 L 460.00 705.60 L 463.90 712.00 L 468.00 718.20 L 472.60 724.10 L 481.80 734.00 L 487.00 738.50 L 492.50 742.40 L 500.40 746.70 L 504.70 748.30 L 508.00 749.10 L 511.30 749.40 L 514.50 749.30 L 520.80 747.90 L 528.30 744.40 L 532.60 741.60 L 540.40 735.60 L 546.70 729.40 L 552.50 722.70 L 557.70 715.70 L 562.60 708.30 L 566.90 700.70 L 570.80 692.80 L 574.30 684.60 L 577.30 676.30 L 579.90 667.80 L 582.10 659.30 L 585.40 642.00 L 440.00 641.90 Z M 602.50 642.10 L 601.10 652.40 L 599.10 662.60 L 596.50 672.70 L 593.40 682.70 L 589.80 692.50 L 585.60 702.00 L 582.00 709.00 L 574.00 722.40 L 564.80 734.90 L 559.60 740.80 L 554.20 746.50 L 548.40 751.90 L 547.20 751.80 L 539.90 758.10 L 550.40 758.00 L 560.80 757.20 L 571.10 755.90 L 581.40 753.90 L 591.50 751.40 L 601.60 748.50 L 611.50 745.00 L 621.20 741.20 L 638.40 733.40 L 646.00 729.40 L 660.50 720.40 L 667.50 715.40 L 680.60 704.50 L 686.90 698.60 L 692.80 692.40 L 698.40 685.90 L 703.70 679.20 L 708.70 672.20 L 713.30 665.00 L 717.50 657.60 L 721.30 650.00 L 724.80 642.10 L 602.50 642.10 Z M 432.70 779.10 L 432.40 793.20 L 432.60 808.50 L 433.60 810.50 L 434.80 811.60 L 436.30 812.40 L 438.10 812.80 L 585.50 812.90 L 588.90 811.80 L 590.20 810.80 L 591.20 808.80 L 591.60 793.20 L 591.40 779.00 L 591.20 777.80 L 590.00 776.10 L 588.70 775.20 L 587.10 774.70 L 585.40 774.50 L 438.50 774.40 L 435.20 775.20 L 433.90 776.10 L 432.80 777.90 L 432.70 779.10 Z M 501.90 882.90 L 502.00 883.50 L 499.10 884.70 L 496.30 886.30 L 493.70 888.20 L 491.40 890.50 L 487.70 895.60 L 486.30 898.50 L 484.60 904.60 L 484.30 907.80 L 484.50 911.00 L 485.20 914.20 L 486.10 917.20 L 488.90 922.60 L 490.80 924.90 L 493.70 927.80 L 497.00 930.20 L 500.60 932.10 L 504.40 933.60 L 508.40 934.50 L 512.50 934.90 L 515.90 934.40 L 522.70 932.60 L 525.90 931.20 L 528.80 929.40 L 533.80 924.60 L 535.80 921.80 L 537.40 918.80 L 538.70 915.60 L 539.50 912.40 L 539.80 909.00 L 539.80 905.50 L 539.40 902.20 L 538.50 898.90 L 537.10 895.80 L 535.40 893.00 L 533.10 890.30 L 530.40 887.60 L 527.30 885.50 L 524.00 883.80 L 520.50 882.70 L 516.90 881.90 L 513.10 881.60 L 509.30 881.70 L 501.90 882.90 Z" fill="#011321" fill-rule="nonzero" node-id="56" stroke="none" target-height="880" target-width="532" target-x="246" target-y="72"/><path d="M 503.40 90.90 L 506.30 89.80 L 509.30 89.20 L 512.30 89.10 L 515.40 89.50 L 518.30 90.40 L 521.00 91.70 L 523.50 93.50 L 525.60 95.70 L 527.30 98.30 L 528.40 100.80 L 529.10 103.30 L 529.40 105.90 L 528.80 111.10 L 528.00 113.60 L 525.40 118.20 L 521.60 121.80 L 519.40 123.20 L 514.40 124.90 L 511.90 125.20 L 507.00 124.50 L 504.60 123.70 L 500.30 121.00 L 496.90 117.40 L 495.60 115.20 L 494.60 113.00 L 493.50 107.90 L 493.50 105.30 L 494.70 100.20 L 497.30 95.80 L 499.10 93.90 L 501.10 92.20 L 503.40 90.90 Z" fill="#ffe699" fill-rule="nonzero" node-id="58" stroke="none" target-height="36.1" target-width="35.900024" target-x="493.5" target-y="89.1"/><path d="M 476.90 240.70 L 481.90 235.70 L 487.20 230.80 L 495.00 225.30 L 499.10 223.10 L 503.50 221.30 L 508.00 220.20 L 512.80 219.60 L 517.40 220.30 L 521.70 221.60 L 525.90 223.40 L 533.60 228.10 L 542.50 235.50 L 547.30 240.30 L 552.10 245.90 L 560.70 257.80 L 564.60 264.10 L 569.20 272.70 L 573.30 281.60 L 576.80 290.80 L 579.80 300.10 L 582.30 309.60 L 584.20 319.30 L 585.60 329.00 L 586.50 338.80 L 586.90 348.60 L 438.30 348.70 L 438.70 339.00 L 439.60 329.30 L 440.90 319.60 L 442.80 310.00 L 445.20 300.50 L 448.10 291.20 L 451.60 282.00 L 455.50 273.20 L 460.10 264.50 L 467.90 252.20 L 476.90 240.70 Z M 507.10 258.50 L 505.60 261.60 L 504.80 264.90 L 504.40 268.30 L 504.20 278.70 L 504.60 313.70 L 505.20 325.30 L 509.30 326.30 L 510.70 313.50 L 511.10 278.00 L 511.60 268.40 L 512.20 265.50 L 515.80 257.60 L 509.60 257.00 L 507.80 257.70 L 507.10 258.50 Z" fill="#ffe699" fill-rule="nonzero" node-id="60" stroke="none" target-height="129.1" target-width="148.60004" target-x="438.3" target-y="219.6"/><path d="M 432.30 159.20 L 432.40 157.80 L 433.40 155.80 L 434.70 154.80 L 438.20 153.80 L 509.60 153.70 L 509.50 194.90 L 437.60 194.90 L 436.20 194.80 L 434.90 194.30 L 433.00 192.30 L 432.40 189.60 L 432.30 159.20 Z" fill="#92b668" fill-rule="nonzero" node-id="62" stroke="none" target-height="41.199997" target-width="77.30002" target-x="432.3" target-y="153.7"/><path d="M 509.60 153.70 L 587.30 153.80 L 588.80 154.20 L 590.00 155.10 L 591.00 156.20 L 591.60 157.50 L 591.90 174.40 L 591.50 191.20 L 590.90 192.60 L 589.90 193.70 L 588.60 194.50 L 587.20 194.90 L 509.50 194.90 L 509.60 153.70 Z" fill="#cfeed5" fill-rule="nonzero" node-id="64" stroke="none" target-height="41.199997" target-width="82.400024" target-x="509.5" target-y="153.7"/><path d="M 341.00 521.50 L 421.60 521.40 L 421.60 572.30 L 341.00 572.30 L 341.00 521.50 Z" fill="#cfeed5" fill-rule="nonzero" node-id="66" stroke="none" target-height="50.899963" target-width="80.600006" target-x="341" target-y="521.4"/><path d="M 438.30 521.50 L 586.70 521.50 L 586.80 546.90 L 586.70 572.30 L 438.30 572.40 L 438.30 521.50 Z" fill="#cfeed5" fill-rule="nonzero" node-id="68" stroke="none" target-height="50.900024" target-width="148.5" target-x="438.3" target-y="521.5"/><path d="M 603.30 521.50 L 735.30 521.50 L 735.30 572.30 L 603.50 572.40 L 603.30 521.50 Z" fill="#cfeed5" fill-rule="nonzero" node-id="70" stroke="none" target-height="50.900024" target-width="132" target-x="603.3" target-y="521.5"/><path d="M 341.10 583.80 L 421.60 583.70 L 421.70 625.50 L 341.10 625.60 L 341.10 583.80 Z" fill="#cfeed5" fill-rule="nonzero" node-id="72" stroke="none" target-height="41.899963" target-width="80.600006" target-x="341.1" target-y="583.7"/><path d="M 540.80 211.10 L 551.10 211.30 L 561.30 212.00 L 571.50 213.30 L 581.60 215.00 L 591.70 217.30 L 601.60 220.00 L 611.30 223.20 L 621.00 226.80 L 630.40 230.90 L 639.70 235.40 L 648.70 240.30 L 657.50 245.60 L 670.90 255.00 L 677.20 260.10 L 689.20 271.30 L 700.00 283.40 L 709.70 296.60 L 718.10 310.50 L 721.80 317.80 L 725.20 325.30 L 728.10 332.90 L 730.70 340.60 L 733.00 348.50 L 603.50 348.70 L 603.30 338.40 L 602.60 328.10 L 601.30 317.80 L 599.40 307.50 L 596.90 297.40 L 593.90 287.50 L 590.40 277.80 L 586.20 268.30 L 582.50 260.90 L 578.40 253.70 L 574.00 246.70 L 569.20 239.90 L 564.10 233.30 L 560.60 229.20 L 556.80 225.40 L 540.80 211.10 Z M 646.80 275.00 L 647.10 277.40 L 659.40 281.10 L 667.30 284.30 L 671.00 286.60 L 674.80 289.70 L 678.20 293.10 L 681.30 296.80 L 686.40 305.00 L 688.50 309.40 L 691.20 316.20 L 693.50 324.40 L 694.00 325.30 L 694.80 325.90 L 696.40 326.20 L 698.20 326.10 L 699.90 325.40 L 701.20 324.30 L 701.70 323.40 L 701.80 322.40 L 699.10 312.30 L 695.50 303.60 L 693.30 299.50 L 687.80 291.90 L 684.60 288.60 L 681.10 285.60 L 677.30 283.00 L 673.20 280.90 L 668.70 279.20 L 657.80 275.80 L 654.20 275.00 L 649.20 274.60 L 646.80 275.00 Z" fill="#ff6b4c" fill-rule="nonzero" node-id="74" stroke="none" target-height="137.6" target-width="192.20001" target-x="540.8" target-y="211.1"/><path d="M 451.20 213.20 L 459.30 212.10 L 467.50 211.40 L 475.60 211.20 L 483.80 211.50 L 477.70 216.40 L 471.80 221.60 L 466.40 227.10 L 461.20 232.90 L 456.30 239.00 L 450.70 246.90 L 445.50 255.10 L 440.90 263.60 L 436.80 272.50 L 433.10 281.60 L 430.00 290.80 L 427.40 300.20 L 425.30 309.80 L 423.70 319.40 L 422.60 329.10 L 422.00 338.80 L 421.90 348.40 L 340.60 348.70 L 341.20 341.30 L 342.80 329.10 L 345.30 319.60 L 347.10 314.50 L 351.60 304.90 L 355.50 298.00 L 359.90 291.30 L 369.60 278.70 L 379.10 273.00 L 392.80 261.30 L 436.30 226.70 L 451.20 213.20 Z" fill="#ff6c4c" fill-rule="nonzero" node-id="76" stroke="none" target-height="137.50002" target-width="143.19998" target-x="340.6" target-y="211.2"/><path d="M 602.50 642.10 L 724.80 642.10 L 721.30 650.00 L 717.50 657.60 L 713.30 665.00 L 708.70 672.20 L 703.70 679.20 L 698.40 685.90 L 692.80 692.40 L 680.60 704.50 L 667.50 715.40 L 653.30 725.10 L 646.00 729.40 L 630.70 737.00 L 590.00 747.10 L 579.70 749.30 L 569.40 750.90 L 555.50 751.90 L 548.40 751.90 L 554.20 746.50 L 559.60 740.80 L 564.80 734.90 L 574.00 722.40 L 582.00 709.00 L 585.60 702.00 L 589.80 692.50 L 593.40 682.70 L 596.50 672.70 L 599.10 662.60 L 601.10 652.40 L 602.50 642.10 Z M 680.80 659.10 L 675.90 665.30 L 665.40 684.10 L 662.00 688.90 L 655.60 695.90 L 645.30 705.80 L 642.10 709.30 L 648.90 711.50 L 664.40 698.00 L 669.10 693.00 L 672.00 689.50 L 674.50 685.70 L 682.80 670.00 L 690.00 658.90 L 683.50 657.60 L 681.60 658.30 L 680.80 659.10 Z" fill="#ff6c4c" fill-rule="nonzero" node-id="78" stroke="none" target-height="109.80005" target-width="176.39996" target-x="548.4" target-y="642.1"/><path d="M 336.50 270.40 L 344.40 262.90 L 352.70 255.90 L 361.40 249.40 L 370.40 243.40 L 379.80 237.90 L 389.40 232.80 L 399.20 228.30 L 409.30 224.20 L 419.60 220.70 L 430.00 217.70 L 440.60 215.20 L 451.20 213.20 L 436.30 226.70 L 392.80 261.30 L 381.30 271.10 L 377.60 271.20 L 374.00 271.70 L 370.60 272.80 L 365.70 274.90 L 360.90 277.70 L 351.90 283.90 L 347.70 287.50 L 344.10 291.40 L 341.00 295.70 L 338.30 300.40 L 335.90 305.20 L 334.00 310.30 L 331.50 318.10 L 329.40 325.90 L 337.60 326.80 L 340.50 317.10 L 343.80 307.50 L 345.80 302.90 L 348.30 298.40 L 351.00 294.30 L 354.10 290.60 L 357.60 287.10 L 365.40 281.20 L 369.60 278.70 L 359.90 291.30 L 355.50 298.00 L 351.60 304.90 L 347.10 314.50 L 345.30 319.60 L 342.80 329.10 L 341.20 341.30 L 340.60 348.70 L 292.10 348.70 L 294.10 341.30 L 299.00 327.00 L 302.00 320.00 L 306.50 311.00 L 311.50 302.20 L 317.10 293.70 L 323.10 285.50 L 329.60 277.80 L 336.50 270.40 Z" fill="#e94a24" fill-rule="nonzero" node-id="80" stroke="none" target-height="135.50002" target-width="159.1" target-x="292.1" target-y="213.2"/><path d="M 507.10 258.50 L 507.80 257.70 L 509.60 257.00 L 515.80 257.60 L 512.20 265.50 L 511.60 268.40 L 511.10 278.00 L 510.70 313.50 L 509.30 326.30 L 505.20 325.30 L 504.60 313.70 L 504.20 278.70 L 504.40 268.30 L 504.80 264.90 L 505.60 261.60 L 507.10 258.50 Z" fill="#08141e" fill-rule="nonzero" node-id="82" stroke="none" target-height="69.29999" target-width="11.599976" target-x="504.2" target-y="257"/><path d="M 351.90 283.90 L 360.90 277.70 L 365.70 274.90 L 370.60 272.80 L 374.00 271.70 L 377.60 271.20 L 381.30 271.10 L 379.10 273.00 L 365.40 281.20 L 361.40 284.00 L 357.60 287.10 L 354.10 290.60 L 351.00 294.30 L 348.30 298.40 L 345.80 302.90 L 343.80 307.50 L 340.50 317.10 L 337.60 326.80 L 329.40 325.90 L 331.50 318.10 L 334.00 310.30 L 335.90 305.20 L 338.30 300.40 L 341.00 295.70 L 344.10 291.40 L 347.70 287.50 L 351.90 283.90 Z" fill="#080f17" fill-rule="nonzero" node-id="84" stroke="none" target-height="55.69998" target-width="51.899994" target-x="329.4" target-y="271.1"/><path d="M 646.80 275.00 L 649.20 274.60 L 654.20 275.00 L 657.80 275.80 L 668.70 279.20 L 673.20 280.90 L 677.30 283.00 L 681.10 285.60 L 684.60 288.60 L 687.80 291.90 L 690.70 295.60 L 695.50 303.60 L 699.10 312.30 L 701.80 322.40 L 701.70 323.40 L 701.20 324.30 L 699.90 325.40 L 698.20 326.10 L 696.40 326.20 L 694.80 325.90 L 694.00 325.30 L 693.50 324.40 L 691.20 316.20 L 688.50 309.40 L 686.40 305.00 L 681.30 296.80 L 678.20 293.10 L 674.80 289.70 L 671.00 286.60 L 667.30 284.30 L 659.40 281.10 L 647.10 277.40 L 646.80 275.00 Z" fill="#07101d" fill-rule="nonzero" node-id="86" stroke="none" target-height="51.600006" target-width="55" target-x="646.8" target-y="274.6"/><path d="M 288.40 410.30 L 288.60 376.30 L 289.00 365.00 L 315.10 365.00 L 341.20 365.00 L 341.00 410.30 L 288.40 410.30 Z" fill="#feab2c" fill-rule="nonzero" node-id="88" stroke="none" target-height="45.299988" target-width="52.80002" target-x="288.4" target-y="365"/><path d="M 432.70 779.10 L 432.80 777.90 L 433.90 776.10 L 435.20 775.20 L 438.50 774.40 L 509.40 774.50 L 509.40 812.90 L 438.10 812.80 L 436.30 812.40 L 434.80 811.60 L 433.60 810.50 L 432.70 808.50 L 432.40 793.20 L 432.70 779.10 Z" fill="#feab2c" fill-rule="nonzero" node-id="90" stroke="none" target-height="38.5" target-width="77" target-x="432.4" target-y="774.4"/><path d="M 341.20 365.00 L 421.60 365.00 L 421.60 410.40 L 341.00 410.30 L 341.20 365.00 Z" fill="#ffe69b" fill-rule="nonzero" node-id="92" stroke="none" target-height="45.399994" target-width="80.600006" target-x="341" target-y="365"/><path d="M 438.30 365.00 L 586.70 365.00 L 586.70 410.40 L 438.30 410.40 L 438.30 365.00 Z" fill="#ffe69b" fill-rule="nonzero" node-id="94" stroke="none" target-height="45.399994" target-width="148.40002" target-x="438.3" target-y="365"/><path d="M 603.20 365.00 L 734.90 364.90 L 735.20 376.30 L 735.30 410.40 L 603.40 410.40 L 603.20 365.00 Z" fill="#ffe69b" fill-rule="nonzero" node-id="96" stroke="none" target-height="45.5" target-width="132.09998" target-x="603.2" target-y="364.9"/><path d="M 341.10 421.70 L 421.60 421.70 L 421.70 463.50 L 341.00 463.60 L 341.10 421.70 Z" fill="#ffe69b" fill-rule="nonzero" node-id="98" stroke="none" target-height="41.899994" target-width="80.70001" target-x="341" target-y="421.7"/><path d="M 438.30 463.60 L 438.50 421.70 L 586.70 421.70 L 586.80 463.60 L 438.30 463.60 Z" fill="#ffe69b" fill-rule="nonzero" node-id="100" stroke="none" target-height="41.899994" target-width="148.5" target-x="438.3" target-y="421.7"/><path d="M 288.50 421.80 L 341.10 421.70 L 341.00 463.60 L 288.50 463.50 L 288.50 421.80 Z" fill="#feab2b" fill-rule="nonzero" node-id="102" stroke="none" target-height="41.899994" target-width="52.600006" target-x="288.5" target-y="421.7"/><path d="M 603.20 421.70 L 735.20 421.80 L 735.30 463.60 L 603.40 463.70 L 603.20 421.70 Z" fill="#ffe69a" fill-rule="nonzero" node-id="104" stroke="none" target-height="42" target-width="132.09998" target-x="603.2" target-y="421.7"/><path d="M 440.00 641.90 L 585.40 642.00 L 582.10 659.30 L 579.90 667.80 L 577.30 676.30 L 574.30 684.60 L 570.80 692.80 L 566.90 700.70 L 562.60 708.30 L 557.70 715.70 L 552.50 722.70 L 546.70 729.40 L 540.40 735.60 L 532.60 741.60 L 528.30 744.40 L 520.80 747.90 L 514.50 749.30 L 511.30 749.40 L 508.00 749.10 L 504.70 748.30 L 500.40 746.70 L 492.50 742.40 L 487.00 738.50 L 481.90 734.00 L 472.60 724.10 L 468.00 718.20 L 463.90 712.00 L 460.00 705.60 L 456.50 699.00 L 452.40 689.90 L 448.90 680.70 L 445.90 671.10 L 443.40 661.50 L 441.50 651.70 L 440.00 641.90 Z M 508.00 675.60 L 507.50 698.50 L 508.50 709.90 L 512.70 709.90 L 513.80 704.40 L 514.30 698.80 L 515.20 676.10 L 516.10 670.60 L 517.50 665.10 L 510.70 664.50 L 509.50 666.00 L 508.80 667.70 L 508.00 675.60 Z" fill="#ffe69a" fill-rule="nonzero" node-id="106" stroke="none" target-height="107.5" target-width="145.40002" target-x="440" target-y="641.9"/><path d="M 509.40 774.50 L 585.40 774.50 L 587.10 774.70 L 588.70 775.20 L 590.00 776.10 L 591.20 777.80 L 591.40 779.00 L 591.60 793.20 L 591.20 808.80 L 590.20 810.80 L 588.90 811.80 L 587.30 812.50 L 583.80 812.90 L 509.40 812.90 L 509.40 774.50 Z" fill="#ffe69a" fill-rule="nonzero" node-id="108" stroke="none" target-height="38.400024" target-width="82.19998" target-x="509.4" target-y="774.5"/><path d="M 266.10 493.50 L 266.00 491.20 L 266.40 489.10 L 268.30 485.10 L 271.50 482.10 L 273.40 481.00 L 275.50 480.40 L 293.60 480.00 L 341.30 480.00 L 340.70 505.00 L 294.00 505.00 L 276.40 504.60 L 272.60 503.30 L 269.30 500.80 L 267.10 497.50 L 266.10 493.50 Z" fill="#ffac2c" fill-rule="nonzero" node-id="110" stroke="none" target-height="25" target-width="75.29999" target-x="266" target-y="480"/><path d="M 438.30 480.10 L 586.70 480.10 L 586.80 504.90 L 438.20 505.00 L 438.30 480.10 Z" fill="#ffe69d" fill-rule="nonzero" node-id="112" stroke="none" target-height="24.899994" target-width="148.59998" target-x="438.2" target-y="480.1"/><path d="M 288.40 521.60 L 341.00 521.50 L 341.10 546.90 L 341.00 572.30 L 288.40 572.40 L 288.40 521.60 Z" fill="#93b769" fill-rule="nonzero" node-id="114" stroke="none" target-height="50.900024" target-width="52.700012" target-x="288.4" target-y="521.5"/><path d="M 288.40 583.90 L 341.10 583.80 L 341.10 625.60 L 293.70 625.70 L 292.00 618.90 L 289.70 605.00 L 288.80 594.50 L 288.40 583.90 Z" fill="#93b76a" fill-rule="nonzero" node-id="116" stroke="none" target-height="41.900024" target-width="52.700012" target-x="288.4" target-y="583.8"/><path d="M 438.30 583.70 L 586.70 583.80 L 586.70 625.60 L 438.40 625.60 L 438.30 583.70 Z" fill="#cfeed6" fill-rule="nonzero" node-id="118" stroke="none" target-height="41.899963" target-width="148.40002" target-x="438.3" target-y="583.7"/><path d="M 603.30 583.70 L 735.00 583.60 L 735.00 590.70 L 734.10 604.70 L 731.90 618.70 L 730.30 625.50 L 603.50 625.70 L 603.30 583.70 Z" fill="#ceeed6" fill-rule="nonzero" node-id="120" stroke="none" target-height="42.100037" target-width="131.70001" target-x="603.3" target-y="583.6"/><path d="M 299.80 642.00 L 343.00 642.00 L 344.80 648.70 L 347.20 655.20 L 358.90 680.40 L 355.20 676.60 L 349.10 668.20 L 341.40 654.50 L 334.10 656.40 L 336.00 662.20 L 338.40 667.60 L 341.40 672.70 L 344.80 677.40 L 348.60 682.00 L 352.80 686.30 L 359.50 692.30 L 366.50 697.90 L 382.00 709.20 L 384.10 709.30 L 385.70 708.80 L 390.20 706.00 L 404.50 715.60 L 439.70 741.90 L 447.60 747.20 L 451.80 749.40 L 456.30 751.00 L 459.50 751.70 L 466.00 752.20 L 475.80 751.70 L 483.10 757.70 L 473.90 757.50 L 464.70 756.80 L 455.50 755.70 L 446.40 754.10 L 428.40 749.80 L 410.80 744.00 L 399.40 739.30 L 388.20 734.10 L 377.30 728.30 L 369.00 723.20 L 360.80 717.70 L 352.80 711.80 L 345.20 705.50 L 337.90 698.80 L 331.00 691.80 L 324.50 684.30 L 318.50 676.60 L 313.00 668.40 L 309.20 662.10 L 302.60 648.90 L 299.80 642.00 Z" fill="#ec4d25" fill-rule="nonzero" node-id="122" stroke="none" target-height="115.70001" target-width="183.30002" target-x="299.8" target-y="642"/><path d="M 343.00 642.00 L 422.80 642.10 L 424.10 652.30 L 426.00 662.50 L 428.30 672.70 L 431.30 682.80 L 434.80 692.60 L 438.80 702.20 L 446.00 716.00 L 454.50 729.00 L 459.30 735.10 L 464.40 740.90 L 469.90 746.40 L 475.80 751.70 L 466.00 752.20 L 459.50 751.70 L 456.30 751.00 L 451.80 749.40 L 447.60 747.20 L 439.70 741.90 L 404.50 715.60 L 390.20 706.00 L 373.90 693.90 L 368.70 689.60 L 358.90 680.40 L 347.20 655.20 L 344.80 648.70 L 343.00 642.00 Z" fill="#ff6c4d" fill-rule="nonzero" node-id="124" stroke="none" target-height="110.20001" target-width="132.79999" target-x="343" target-y="642"/><path d="M 334.10 656.40 L 341.40 654.50 L 349.10 668.20 L 355.20 676.60 L 363.70 685.10 L 368.70 689.60 L 382.00 700.10 L 390.20 706.00 L 385.70 708.80 L 384.10 709.30 L 382.00 709.20 L 366.50 697.90 L 359.50 692.30 L 352.80 686.30 L 348.60 682.00 L 344.80 677.40 L 341.40 672.70 L 338.40 667.60 L 336.00 662.20 L 334.10 656.40 Z" fill="#0a0e1a" fill-rule="nonzero" node-id="126" stroke="none" target-height="54.799988" target-width="56.100006" target-x="334.1" target-y="654.5"/><path d="M 680.80 659.10 L 681.60 658.30 L 683.50 657.60 L 690.00 658.90 L 682.80 670.00 L 674.50 685.70 L 669.10 693.00 L 664.40 698.00 L 659.30 702.60 L 648.90 711.50 L 642.10 709.30 L 645.30 705.80 L 655.60 695.90 L 662.00 688.90 L 665.40 684.10 L 675.90 665.30 L 680.80 659.10 Z" fill="#070e1c" fill-rule="nonzero" node-id="128" stroke="none" target-height="53.900024" target-width="47.900024" target-x="642.1" target-y="657.6"/><path d="M 508.00 675.60 L 508.80 667.70 L 509.50 666.00 L 510.70 664.50 L 517.50 665.10 L 516.10 670.60 L 515.20 676.10 L 514.30 698.80 L 513.80 704.40 L 512.70 709.90 L 508.50 709.90 L 507.50 698.50 L 508.00 675.60 Z" fill="#07131b" fill-rule="nonzero" node-id="130" stroke="none" target-height="45.400024" target-width="10" target-x="507.5" target-y="664.5"/><path d="M 548.40 751.90 L 562.50 751.60 L 569.40 750.90 L 579.70 749.30 L 590.00 747.10 L 630.70 737.00 L 621.20 741.20 L 611.50 745.00 L 601.60 748.50 L 591.50 751.40 L 581.40 753.90 L 571.10 755.90 L 560.80 757.20 L 550.40 758.00 L 539.90 758.10 L 547.20 751.80 L 548.40 751.90 Z" fill="#e9491d" fill-rule="nonzero" node-id="132" stroke="none" target-height="21.099976" target-width="90.79999" target-x="539.9" target-y="737"/><path d="M 501.90 882.90 L 509.30 881.70 L 516.90 881.90 L 520.50 882.70 L 524.00 883.80 L 527.30 885.50 L 530.40 887.60 L 535.40 893.00 L 537.10 895.80 L 538.50 898.90 L 539.40 902.20 L 539.80 905.50 L 539.80 909.00 L 539.50 912.40 L 538.70 915.60 L 537.40 918.80 L 535.80 921.80 L 533.80 924.60 L 528.80 929.40 L 525.90 931.20 L 519.30 933.60 L 512.50 934.90 L 511.00 921.90 L 521.70 921.40 L 514.50 914.90 L 512.50 912.40 L 511.90 908.40 L 512.40 900.30 L 503.60 896.90 L 503.20 890.10 L 501.90 882.90 Z" fill="#ff6c4b" fill-rule="nonzero" node-id="134" stroke="none" target-height="53.200012" target-width="37.899994" target-x="501.9" target-y="881.7"/><path d="M 485.20 914.20 L 484.50 911.00 L 484.30 907.80 L 484.60 904.60 L 486.30 898.50 L 487.70 895.60 L 491.40 890.50 L 493.70 888.20 L 496.30 886.30 L 499.10 884.70 L 502.00 883.50 L 503.20 890.10 L 503.60 896.90 L 502.30 907.30 L 502.60 912.40 L 503.30 914.50 L 504.50 916.30 L 507.50 919.30 L 511.00 921.90 L 512.50 934.90 L 508.40 934.50 L 504.40 933.60 L 500.60 932.10 L 497.00 930.20 L 493.70 927.80 L 490.80 924.90 L 488.90 922.60 L 486.10 917.20 L 485.20 914.20 Z" fill="#eb4b24" fill-rule="nonzero" node-id="136" stroke="none" target-height="51.400024" target-width="28.200012" target-x="484.3" target-y="883.5"/><path d="M 502.60 912.40 L 502.30 907.30 L 503.60 896.90 L 512.40 900.30 L 511.90 908.40 L 512.50 912.40 L 514.50 914.90 L 521.70 921.40 L 511.00 921.90 L 507.50 919.30 L 504.50 916.30 L 503.30 914.50 L 502.60 912.40 Z" fill="#030d1b" fill-rule="nonzero" node-id="138" stroke="none" target-height="25" target-width="19.400024" target-x="502.3" target-y="896.9"/></svg>