<svg t="1732266400231" class="icon" viewBox="0 0 1024 1024" version="1.1" xmlns="http://www.w3.org/2000/svg" p-id="1133" width="200" height="200"><path d="M481.621333 103.521524v0.390095h53.686857l-0.048761 385.804191h383.268571v52.662857h1.950476c0 13.945905-0.633905 27.794286-1.950476 41.447619v3.413333c-22.77181 221.281524-209.67619 393.99619-436.906667 393.996191a438.857143 438.857143 0 0 1-43.885714-875.568762l0.048762-1.755429h25.551238a445.19619 445.19619 0 0 1 5.36381-0.243809l12.921904-0.146286z m-341.333333 438.857143a341.333333 341.333333 0 0 0 679.740952 44.860952H437.784381V203.824762a341.382095 341.382095 0 0 0-297.447619 338.553905z" fill="#32394A" p-id="1134"></path><path d="M660.577524 0v0.877714a390.192762 390.192762 0 0 1 361.569524 350.988191H1024v97.523809h-460.507429v-48.761904h-0.438857V0h97.52381z m0 98.742857v253.123048h263.411809a292.668952 292.668952 0 0 0-263.363047-253.123048z" fill="#1890FF" p-id="1135"></path></svg>